<svg xmlns="http://www.w3.org/2000/svg" id="Layer_1" x="0" y="0" viewBox="0 0 70 70" style="enable-background:new 0 0 70 70" xml:space="preserve"><style>.st0{fill:#ddb4ba}</style><path class="st0" d="M31.7 4.3c.9-.1 1.8-.3 2.6-.7 1-1.7-2.5-2.1-3.4-1-.2.3-.5 1-.3 1.4.2.4.8.3 1.1.3zM54.5 12c-.7-.4-1.5-.8-2.3-1.1-3.5-1.2-7.2-1.6-10.8-1.1.4.7.8 1.4 1.1 2.1 3.9-.8 8-.7 12 .1zM23.8 31.3c-.6-.9-1.4-1.5-2.4-1.9-1.1-.3-1.7.7-1.7 1.6 0 .6.1 1.2.3 1.8l.1.1c.2.3.3.7.4 1.1l.6 1.2c.8 1.2 2.1 3.1 3.6 3.4.9.2 1.5-.1 1.4-1.1-.2-2.2-.9-4.2-2.1-6-.1 0-.2-.1-.2-.2zm-1.2 5.3c-.7-.6-1.2-1.3-1.6-2.1-.2-.5-.4-.9-.5-1.4-.1-.4-.1-.8-.1-1.2 0-.7.2-1.1.3-1.1.1 0 .1.4.2 1.1.1.8.4 1.6.8 2.3.9 1.7 2.1 2.9 1.9 3-.1 0-.4-.2-1-.6z"/><path class="st0" d="M13.4 16.4c-.5 1-1.2 1.7-1.5 2.5v.3c0 1.1.2 2.2.6 3.3.7 1 1.5 2.2 1.6 3.1 1.3 1.9 3.1 3.3 5 3.4.6-.7 1.5-1.1 2.4-.9h.2c.8.2 1.8 1.1 2.8 2.3.1 0 .2 0 .3.1 1.9 1.1 4.5.5 6.7-.6 0-.1-.1-.2-.1-.3-.1-.8-.2-1.5-.1-2.3 0-.4.1-.8.1-1.2v-.4h.3c.5 0 1 .2 1.5.4.3.2.5.3.5.4s-.2.1-.6 0c-.3 0-.6-.1-1-.1v.8c0 .9-.1 1.6-.1 2.2v.2c.8-.4 1.6-.9 2.3-1.4 1.7-1.2 3.2-2.8 4.4-4.5-.1-.1-.1-.2-.2-.2-.3-.5-.7-1-.9-1.5-.2-.3-.3-.5-.5-.8l-.3-.6h.5c.4 0 .8 0 1.2.1.3.1.4.2.4.2 0 .1-.4.2-.9.3.1.1.2.2.2.4.3.5.5 1.1.7 1.6v.1c1-1.5 1.8-3.1 2.5-4.8-.8-2-1.1-3.9.2-4.7-.6-2.1-1.7-4-3.1-5.6-.2.7-.5 1.5-.8 2.1-.3.6-.5 1-.6 1-.1 0-.1-.5.1-1.1.1-.6.4-1.3.6-2.1h-.9c-.3-.1-.6-.1-.9-.1-.5-.1-1-.1-1.4-.2-.8-.1-1.3-.3-1.2-.4s.5-.2 1.3-.2H37.6c-.9-.8-1.8-1.5-2.8-2.2l-.1-.1c-1.3.5-3 1.1-4.3.6-.5-.2-.9-.6-1.1-1.1h-.1c-5.9.1-14.8 3.1-16.1 9.8.8.5.7 1.6.3 2.2zm2.7 7.6-.1.3-.3-.1c-.3-.2-.6-.4-.8-.7-.1-.2-.3-.4-.4-.6-.2-.3-.3-.5-.3-.6 0 0 .2.1.5.4.3.3.5.6.9.8.2-1.6.1-3.2-.1-4.7l-.3-2.1c-.2.3-.5.6-.7.8-.4.4-.7.8-1 1.1-.5.6-.7 1-.8 1-.1 0 0-.5.5-1.2.4-.7 1.3-1.6 1.9-2.7l.4-.7.2.8c.3 1 .5 1.9.6 2.9.3 1.7.2 3.5-.2 5.3zm4.9 2.2c-1 .3-2.1.7-3 1.2-.1.1-.3.1-.4.2l-.6.2v-.6c0-1 0-2 .1-3 .1-.8.2-1.2.3-1.2.1 0 .1.5.2 1.3 0 .6.1 1.5.1 2.4 1-.5 2.1-.8 3.2-1 .9-.1 1.4 0 1.4.1s-.5.1-1.3.4zm.7-2.2c-.6-.4-1.1-.7-1.8-1-.8-.4-1.5-.8-2.2-1.4l-.3-.3-.1-.1v-.1c-.1-.2-.2-.5-.3-.7-.1-.4-.1-.9-.1-1.3 0-.7 0-1.4.1-2.1.1-.6.1-1 .1-1.4 0-.3.1-.5.1-.5.1 0 .1.2.2.5.1.5.1.9.1 1.4 0 .6 0 1.3.1 2s.2 1.6.7 2.1c.6.5 1.3.9 2 1.3.6.3 1.2.7 1.8 1.2.4.4.8.7 1 1 .2.2.4.4.3.4s-.2 0-.5-.2c-.4-.2-.8-.5-1.2-.8zm-2.3-10.1c0 .4.1.8.1 1.2.1.5.1.9.1 1.4 0 .5-.1 1-.1 1.4V18.8c0 .1 0 .2.1.3.3.6.7 1.1 1.3 1.4.4.3.8.6 1.1.9.3.2.4.4.3.4 0 0-.2 0-.5-.2s-.7-.4-1.3-.7l-.9-.6c-.3-.3-.6-.6-.8-1 0-.1-.1-.2-.1-.3 0-.1 0-.2-.1-.4v-.8c0-.5 0-.9.1-1.4 0-.4 0-.9-.1-1.3s-.1-.9-.1-1.3.1-.9.3-1.3l.1-.2.1-.1v-.1l.1-.1c.1-.1.3-.2.5-.3 1.1-.6 1.9-.7 1.9-.6.1.1-.6.5-1.6 1.1l-.3.3-.1.1v.1l-.1.1v.1c0 .4-.1.7 0 1zm11.3 12.4c0 .4-.1.8-.3 1.2-.1.3-.3.6-.3.8-.2.5-.3.7-.3.7-.1 0-.1-.3 0-.8.1-.4.2-.9.3-1.4-.3.1-.6.2-.9.2-.5.1-1.1.1-1.6.1-1.3 0-2.4-.2-3.3-.2.1.4.2.8.3 1.1 0 .4 0 .6-.1.6s-.1-.2-.3-.5c-.2-.5-.4-.9-.6-1.3l-.2-.4.4-.1c1.1-.2 2.4 0 3.8 0h1.5c.4 0 .8-.1 1.2-.3l.6-.4-.2.7zm-5.9-3.1c0-.1.2-.1.5-.2.5-.1 1-.2 1.5-.2.6-.1 1.4-.1 2.2-.2.8 0 1.7-.3 2.4-.7l.2-.1.1-.1.2-.2c.1-.2.2-.3.4-.5.2-.4.4-.8.6-1.1l.3-.6c.1-.2.2-.3.4-.5.2-.3.5-.6.7-.8.3-.3.5-.8.6-1.2.1-.3.1-.5.2-.5s.1.2.1.6c0 .5-.2 1.1-.5 1.5-.2.3-.4.5-.6.8-.1.2-.2.3-.3.5-.1.2-.2.3-.3.5-.2.4-.3.8-.6 1.2-.1.2-.3.4-.4.6l-.3.3-.2.1-.2.1c-.4.3-.9.4-1.4.5-.4.1-.9.2-1.3.2-.9.1-1.6 0-2.2 0h-2.1zm11.7-7.4c0-.5 0-1 .2-1.4.1 0 .1.5.2 1.4.1 1.2.3 2.4.6 3.6l.1.3-.3.1c-.5.3-1 .6-1.4 1.1-.4.5-.8 1.1-1.3 1.7-.2.2-.4.4-.5.6-.2.2-.3.4-.5.7-.2.2-.3.4-.5.6-.2.2-.5.4-.7.5-.1 0-.3.1-.4.1h-1.1c-.4 0-.8-.1-1.2-.2-.2 0-.3-.1-.5-.1h-1.4c-1-.1-1.7 0-1.7-.1s.6-.3 1.7-.4h1.9c.4 0 .7.1 1.1.1H31.7c.1 0 .1 0 .2-.1s.1-.1.2-.1c.1-.1.2-.1.2-.2.2-.2.3-.4.5-.6.2-.2.3-.4.5-.7.2-.2.4-.5.5-.7.4-.6.9-1.2 1.3-1.7s.9-.9 1.4-1.1c-.1-.3-.1-.6-.1-.8-.1-.3-.1-.7-.1-1 .1-.6.2-1.1.2-1.6zM22 6.8l.1-.2.3.1c1.2.2 2.3.3 3.5.2 1.6-.1 3.3-.1 4.9.1.1 0 .2 0 .3.1l.3.1c.2.1.4.2.5.3l.9.6c.5.4.9.9 1.3 1.4.7.9 1.3 1.6 1.6 2.1.4.5.6.8.5.8 0 0-.3-.2-.8-.6-.5-.5-1-1.2-1.8-2-.4-.4-.8-.9-1.3-1.2-.3-.2-.5-.4-.8-.5-.1-.1-.3-.1-.4-.2l-.1-.2c-.1 0-.2 0-.3-.1-1.6-.1-3.2-.1-4.8 0-1.1 0-2.3 0-3.4-.2-.1.2-.3.4-.4.6-.2.2-.4.5-.6.7-.4.5-.8.9-1.1 1.3l-.3.3-.3.3c-.2.2-.4.3-.6.5-.4.3-.7.6-1 .8-.5.4-.9.8-1.3 1.2-.3.3-.4.5-.5.5 0 0 0-.2.2-.6.4-.5.8-1 1.2-1.4.7-.6 1.3-1.3 1.9-2 1-.9 1.7-1.8 2.3-2.8zm-7.2 6.1c0-.2 0-.4.1-.6.1-.1.1-.2.2-.2 0 0 .1.1.1.2v.1c.4-.4.8-.9 1.3-1.5s1-1.1 1.6-1.7c.4-.4.8-.6.9-.5.1.1-.1.4-.4.9-.4.6-.9 1.2-1.4 1.8-.5.6-1.2 1.2-1.9 1.6l-.5.3v-.4zM46.7 20.3c-.2-2.2-.5-5-2.2-5.6h-.3c-1.7-.1-2.7.3-2 2.1.2.4.3.9.5 1.3.1.1.2.3.2.4.1.3.3.7.4 1.1.4 1.6-.5 3.3 0 4.8.6 1.7 2.3.8 3.5.4-.1-1.5-.1-3-.1-4.5 0 .1 0 0 0 0zM45 23.4c-.3-.2-.6-.5-.7-.8-.4-.8-.5-2.1-.6-3.3 0-.3-.1-.5-.1-.7-.1-.2-.1-.5-.1-.8 0-.2 0-.3-.1-.5-.1 0-.1-.1-.2-.1-.2-.1-.4-.2-.5-.3-.1-.2-.1-.5-.1-.8 0-.2.1-.4.2-.6.1-.1.2-.2.4-.1.1 0 .1.1.1.1s0 .1-.1.1-.1.1-.1.2c-.1.3 0 .6.1.8.1 0 .1.1.2.1s.1 0 .2.1c.1 0 .2.1.3.2.1.2.2.5.3.8 0 .2.1.4.1.7.1.3.1.6.1.8 0 1.1.1 2.1.3 3.2.2.7.7 1 .6 1.1.1 0-.1-.1-.3-.2zM14.7 40.2c.6.4 1 1 1.1 1.7v.1c.5-.7 1-1.4 1.6-2.1-.2 0-.4.1-.6.1-.8.1-1.6 0-2.3-.4-.3-.2-.6-.5-.9-.8-.1-.1-.2-.3-.3-.5v-.4s-.1.1-.2.1c-.2.1-.3.1-.3.1s0-.1.1-.3c.1-.2.1-.4.1-.6 0-.2-.2-.4-.4-.5h-.4c-.1 0-.2.1-.2.1l-.2.2c-.1.2-.2.3-.3.5 0 .1-.1.2-.1.3v.2s.1.1.1.2v.1h.1c.2-.1.3-.3.4-.4.1-.1.1-.2.2-.2 0 0 .1.1.1.3 0 .2-.1.4-.2.6.5.1.6.3.6.4 0 .1-.3.1-.6.2-.5.2-.9.5-1.1.9-.4.7-.5 1.5-.4 2.2 0 .4.1.8.3 1.2l.2.2.2.1c.1 0 .1.1.2.1 0 0 .1 0 .1.1.1 0 .2.1.3.1.8.3 1.8.1 2.5-.3.3-.2.5-.5.6-.8.1-.2.1-.3.1-.5v-.6c0-.5-.2-1-.5-1.5-.5-.2-.6-.4-.6-.5.1-.1.4 0 .7.3zM13 43.6c-.1 0-.1.1-.2.1s-.2 0-.2.1h-.2v-.2l-.1.1h-.1c-.3 0-.6-.2-.8-.4-.1-.1-.3-.3-.3-.4-.1-.2-.2-.4-.1-.6 0-.2.1-.3.2-.4 0-.1-.1-.2-.1-.3 0-.3.1-.5.3-.7.1-.1.2-.2.4-.3h.2s0 .1-.1.2-.1.2-.1.3c-.1.1-.1.3-.1.5 0 .1.1.1.1.1h.1l.1.6h.1v.1h-.4c0 .2.1.3.3.4.1.1.3.2.4.2h.5c.2-.1.4-.3.5-.6.1-.5-.2-.9-.1-.9 0 0 .2 0 .3.1.2.2.3.5.3.8-.2.5-.4.9-.9 1.2zM43.4 52.9c-4.1 2.9-8.8 5.7-13.7 7.1-3.8 1-8.9 1.8-12.7.2 0 1.6.5 3.2 2.2 4 4.6 2.2 11.4.2 15.7-1.9 5.3-2.5 9.9-6.1 14.2-10 4.5-4 9.1-8.1 12.2-13.4.8-1.4 1.4-2.8 1.7-4.4.3-1.3 1-2.6 1.2-4 .5-3.4-3.4-4-5.9-4.1.5 5.8-2.3 10.3-5.2 15.1-2.7 4.4-5.5 8.5-9.7 11.4z"/><path class="st0" d="M34.6 29.7c-2.4 1.5-5.8 3.2-8.8 2.6.8 1.3 1.4 2.7 1.7 4.1 1.6-2 3.6-3.8 5.8-5.1 1.8-1.1 3.4-2.5 5.3-3.4 1.3-.6 3-.6 4.2-1.7 0 0-.1 0-.1-.1-1.3-1.2-.9-3.4-.8-5.3-1.7 3.6-4 6.9-7.3 8.9zM42.9 13.2s0 .1 0 0c2.1-.4 3.4.6 4.1 2.2v-.1c0-.1.1-.3.2-.4.1-.2.3-.5.5-.7.3-.3.8-.5 1.2-.6h.5c.1 0 .3 0 .4.1.5.1.7.2.7.3 0 .1-.3.2-.7.3-.5.1-1 .3-1.3.7-.1.1-.1.3-.2.4 0 .1-.1.2-.1.3 0 .1-.1.2-.1.3-.1.4-.1.8 0 1.2.1.4.3.7.6.9.1 0 .1.1.2.1l.1.1c.1.1.2.1.3.2.2.1.5.2.7.3 1 .3 2.1.2 2.6-.3 0-.1.1-.1.2-.2 0-.1.1-.1.1-.2s.1-.2.1-.3.1-.2.1-.3c.1-.3 0-.7-.1-1-.2-.5-.6-.9-1.1-1.2-.4-.2-.6-.4-.6-.5 0-.1.3-.1.8-.1.2 0 .5.1.7.2 0-.1 0-.2.1-.3.1-.2.3-.4.5-.4.1 0 .2.1.2.1 0 .1-.1.1-.1.2-.1.1-.1.2-.1.3 0 .2 0 .3.1.5 0 .1.1.1.1.2H53.9v-.1c0-.2 0-.3-.1-.5-.1-.3-.3-.5-.2-.6 0-.1.4-.1.7.3l.3.6c.1 0 .1-.1.2-.1.4-.2.9-.3 1.4-.3.4 0 .5.2.5.3 0 .2-.6.4-1.3 1-.4.4-.8 1.2-.5 1.7.2.2.3.3.6.4.3.1.6.2.9.2h.8c.2 0 .3-.1.5-.2.1-.1.2-.3.2-.4 0-.3-.1-.7-.2-1-.1-.3-.1-.5-.1-.5.1-.1.3 0 .5.2.2.1.3.3.4.4.2.2.3.5.4.8.1.4 0 .9-.2 1.2 0 0 0 .1-.1.1 1 .1 1.9.2 2.8.5-1.1-1.8-2.5-3.4-4.1-4.8-.1-.1-.3-.2-.4-.3-4.2-1.7-9.2-2-14-1.2zM57.3 17c.1.1.2.3.2.4 0 .2-.1.4-.2.5h-.4c-.1 0-.2 0-.3-.1-.1-.1-.3-.1-.4-.2-.2-.2-.3-.3-.3-.4.1-.2.7-.1.8-.1-.1-.2-.3-.6-.1-.7h.4c.1.3.2.4.3.6zm-6.4.5c.1-.2.1-.3.2-.5 0-.2.1-.2.1-.3s.1.1.2.2c.1.2.1.5.1.8-.1.2-.2.4-.4.5-.2.1-.5.1-.7.1-.5-.1-.9-.3-1.2-.7-.2-.2-.3-.5-.3-.8 0-.1 0-.1.1-.2-.4-.3-.4-.8-.1-1.2.1-.1.3-.2.4-.3h.2s0 .1-.1.2-.1.2-.1.3c-.1.4.6.9.8.6-.4.6-.3 1.1.5 1.3.1.2.2.2.3 0zM10.9 33.6c1.3-1.7 2.9-3.2 3.9-5.1-.6-.5-1.1-1.1-1.6-1.8-.3.1-.5.1-.8.1-3.7 5.3-6.2 11.3-7.5 17.6-.5 2.7-.8 5.8 0 8.5.1-4.2 1-8.4 2.5-12.4 1-2.3 2-4.9 3.5-6.9zM11.5 24.7h.4c-.3-.6-.5-1.1-.7-1.7-.2-.3-.4-.5-.6-.8 0-.1-.1-.1-.1-.2-.8-1.8-.6-2.8.5-4.4.3-.5.7-1 1-1.5.9-1.6-2.2-.4-2.5-.1-.6.5-1 1.2-1.1 2 .2 2.1 1.7 3.9 2.6 5.8.3.2.4.6.5.9z"/><path class="st0" d="M67.4 25.5c-.8-2.6-3-4.1-5.6-4.8-2.5-.6-5.1-.8-7.6-.4-1.1.2-2.2.5-3.4.7-.9.2-1.8-.2-2.6.2 0 .2 0 .4.1.6v.1c2.6-.7 5.2-1 7.9-1 1.9 0 3.8.3 5.6.8 1 .3 1.9.7 2.8 1.3.5.4.7.5.7.6 0 0-.3-.1-.8-.3-.9-.4-1.8-.8-2.8-1.1-1.8-.5-3.6-.7-5.5-.7-2.7.1-5.4.5-8.1 1.2 0 .7 0 1.4.1 2.2 2.1-.1 4.1 0 6.2 0 2.7 0 5.9-.2 8.5 1.1 1.6.7 2.6 2.3 2.6 4 0 1.2-.7 2.3-1 3.4-.4 1.3-.6 2.6-1.1 3.9-2 5.4-6.8 9.7-10.9 13.5-7.8 7.2-17.3 15.4-28.6 15.4-3 0-6.4-.4-7.8-3.4-.5-1.1-.7-2.4-.6-3.6-.1-.2-.1-.4.1-.6.2-1.4.6-2.8 1.1-4.1 2-5.2 4.8-10.1 8.2-14.5-1-.1-1.9-.5-2.6-1.2l-1.5 1.8c-.5.8-1.1 1.5-1.5 2.2-.4.7-.9 1.4-1.3 2-.4.7-.7 1.3-1 1.9-1.3 2.5-2.1 4.4-2.7 6-.6 1.5-1 2.6-1.3 3.3s-.4 1-.5.9 0-.3.2-1c.1-.3.2-.8.4-1.4.2-.6.4-1.2.7-2 .7-2.1 1.6-4.1 2.6-6.1.3-.6.7-1.3 1-2 .4-.7.8-1.4 1.3-2.1.5-.7 1-1.4 1.6-2.2l1.5-1.8-.7-.7c-3.7 4.3-7.3 9.1-9 14.5-.9 2.7-2 6-1 8.8.1.2.2.4.3.7.1.1.1.2.1.3 1 2.2 2.8 3.9 4.9 5 4.8 2.1 10.6.6 15.3-1.1 5.6-2 10.8-4.9 15.5-8.6 4.5-3.6 9.2-7.3 12.5-12 2.7-3.8 6.5-7.3 7.6-12 .6-2.3.9-5.3.1-7.7zm-12.1-1.8h-2.1c-.6 0-1.2 0-1.7-.1h-1.1c-.3 0-.4 0-.4-.1s.1-.1.4-.2l1.2-.3c.6-.1 1.1-.1 1.7-.1h2.1c.7 0 1.4 0 2.1.1.6.1 1.2.2 1.7.3 1 .2 1.5.4 1.5.5-.1.3-2.5-.1-5.4-.1zM14.6 54.5c-.6 1.4-1.1 2.9-1.5 4.3-.2.8-.3 1.6-.4 2.4 0 .7.1 1.3.3 1.9.2.4.4.8.6 1.1.2.3.3.4.3.4s-.2 0-.5-.2c-.4-.3-.7-.7-.9-1.1-.3-.7-.5-1.4-.5-2.1 0-.9.1-1.8.3-2.6.4-1.5 1-3 1.7-4.4.6-1.1.9-1.7 1-1.6.2 0 0 .8-.4 1.9zM10.7 47c-.2-.3-.3-.6-.2-.6.1-.1.3 0 .6.2.2.2.4.3.6.5.2.3.4.6.5.9.4-.8.8-1.5 1.3-2.3h-.2c-.7.1-1.4.1-2.1-.1-.2-.1-.4-.1-.5-.2l-.3-.1c-.1 0-.1-.1-.2-.1l-.2-.1h-.1l-.1-.1-.1-.1c-.1-.1-.3-.3-.4-.5-.1-.3-.3-.5-.3-.8-.1 0-.2 0-.3.1-.4.2-.6.6-.7 1v.6c.3-.2.5-.4.6-.3.1 0 .1.2 0 .5h.2c.1 0 .2.1.2.1 0 .1 0 .1-.1.2-.1 0-.1.1-.2.1s-.2.1-.2.1c-.4.2-.7.6-.9 1-.3.6-.4 1.3-.2 1.9.1.3.2.7.4.9.2.3.5.4.8.5.7.2 1.5 0 2-.5.7-.7.6-1.8.1-2.8zm-.6 2.1c-.1.3-.3.5-.6.6-.1.1-.3.1-.4.1h-.4c-.5-.1-.8-.4-.9-.9-.1-.3-.1-.5 0-.8.1-.2.2-.2.2-.2.1 0 .1.4.3.8.1.2.3.4.5.4H9c.1 0 .1 0 .1-.1l.3-.3c.1-.1.1-.2.1-.3 0-.1 0-.1-.1-.1l-.4-.2.1-.3c.1-.1.1-.3 0-.4-.1-.1-.2-.2-.3-.1-.1 0-.2 0-.3.1-.1.1-.1.1-.2.1 0 0-.1-.1-.1-.2 0-.2.2-.3.3-.4.3-.1.6-.1.9.1.2.2.3.4.3.7 0 0 .1 0 .1.1.1.1.2.3.3.4.2.3.2.6 0 .9zM18.7 37.3c.1-.2.2-.5.3-.7.1-.3.1-.5.1-.8v-1.3c-.2-.4-.3-.8-.4-1.3 0 0 0-.1-.1-.1l-.1-.1-.2-.1h-.1c-.3 0-.6 0-.9.1-.3.1-.5.2-.8.4-.4.2-.7.3-.8.3-.1-.1.1-.3.4-.7l.7-.7c.4-.3.9-.5 1.4-.5h.1c-.1-.5 0-1 0-1.5-.9-.1-1.8-.5-2.6-1-1 1.8-2.7 3.2-3.8 5-1.4 2.3-2.6 4.8-3.6 7.4-.2.6-.4 1.1-.6 1.7.2-.2.5-.3.7-.3h.3c0-.2 0-.4-.1-.7 0-1.1.3-2.1 1-2.9.3-.3.6-.6.9-.7l-.1-.1v-1c0-.1.1-.2.1-.4.1-.2.2-.5.4-.7l.3-.3c.1-.1.2-.1.4-.2.3-.1.6-.1.9 0 .1 0 .2.1.3.2 0-.8.4-1.6 1.1-2.1.5-.3.8-.3.8-.3.1.1-.2.3-.4.7-.3.5-.5 1.1-.4 1.8 0 .4.1.8.3 1.2.2.4.4.7.8.9 1 .4 2.1.2 2.9-.5.5-.3.7-.5.8-.7zm-4.5-4.2c-.4.4-.6.7-.7.7 0 0-.1-.1 0-.3.1-.3.2-.5.3-.7.5-.7 1-1.2 1.6-1.8l.6-.6.3-.3.3.3c.2.2.5.3.9.4l.6.1-.4.4c-.2.2-.5.4-.7.6-.3.1-.4.1-.4.1-.1 0 0-.2.1-.4.1-.1.1-.2.2-.3h-.1c-.1 0-.3-.1-.4-.1l-.4.4c-.8.6-1.4 1.1-1.8 1.5zm3.5 4.4-.2.2-.2.1c-.3.1-.7.2-1.1.2-.4 0-.9-.1-1.2-.5-.2-.2-.2-.5-.2-.7v-.1c-.1 0-.1 0-.2-.1-.1 0-.1-.1-.2-.1s-.1-.1-.1-.2c-.1-.1-.1-.2-.1-.4s.1-.4.2-.5l.3-.3c.4-.3.6-.4.7-.4.1.1-.1.3-.3.6-.1.2-.2.4-.2.6 0 .1 0 .1.1.1s.3.1.4 0h.5l-.2.5-.1.1v.2c.2.1.4.2.6.2.2 0 .4 0 .6-.1l.2-.1.1-.1c.1-.1.2-.1.2-.2.3-.3.4-.6.3-1 0-.3-.2-.5-.3-.7-.1-.2-.2-.3-.2-.3s.2 0 .4.1c.3.2.5.5.7.8.2.5.1 1.1-.3 1.6 0 .3-.1.4-.2.5zM9.3 57.2c-.1 0-.2.1-.3.1-.3 0-.5 0-.8-.1-.1 0-.2-.1-.3-.2-.1-.1-.2-.1-.2-.2-.2-.2-.4-.5-.5-.8-.2-.4-.3-.9-.2-1.3.1-.3.2-.4.3-.4.2 0 .4.6.8 1.2.1.1.2.3.4.4.1.1.2.1.2 0 0 0 .1 0 .1-.1 0 0 0-.1.1-.1l.1-.1.1-.2v-.1c0-.1.1-.2.1-.3.1-.5.1-1-.1-1.5-.1-.2-.1-.4-.2-.6-.1-.1-.1-.2-.2-.2h-.3c-.1 0-.2.1-.3.2-.1.1-.3.2-.4.1-.1-.1-.1-.2 0-.5.1-.2.2-.3.3-.5l.1-.1c-.6-.2-1.2-.5-1.6-1-.1 1.6-.2 3.2-.2 4.8.9 1.5 2 2.8 3.1 4.1-.1-.8-.1-1.7-.1-2.6z"/></svg>