<svg xmlns="http://www.w3.org/2000/svg" data-name="Layer 1" width="789.382" height="609.376"><path d="M776 528.671c-3.318-26.678-19.852-52.964-45.295-61.645a123.863 123.863 0 0 1-.006 85.04c-3.91 10.575-9.359 21.93-5.681 32.589 2.288 6.632 7.885 11.706 14.142 14.878 6.257 3.173 13.202 4.685 20.059 6.167l1.35 1.116c10.885-24.58 18.748-51.467 15.43-78.145z" fill="#f0f0f0"/><path d="M730.453 467.53a105.87 105.87 0 0 1 26.319 59.584 45.59 45.59 0 0 1-.519 14.275 26.149 26.149 0 0 1-6.503 12.128c-2.931 3.22-6.303 6.175-8.4 10.052a16.01 16.01 0 0 0-.782 13.071c1.851 5.311 5.501 9.64 9.217 13.75 4.126 4.562 8.484 9.236 10.238 15.285.213.733 1.338.36 1.125-.372-3.051-10.524-13.267-16.502-18.14-25.98-2.272-4.423-3.227-9.558-1.095-14.227 1.863-4.083 5.337-7.133 8.333-10.368a27.902 27.902 0 0 0 6.801-11.622 42.148 42.148 0 0 0 1.066-14.203 102.713 102.713 0 0 0-7.502-31.213 107.747 107.747 0 0 0-19.374-31.049c-.507-.567-1.287.326-.784.89z" fill="#fff"/><path d="M756.453 519.943a15.884 15.884 0 0 0 12.09-16.639c-.06-.76-1.243-.702-1.183.06a14.708 14.708 0 0 1-11.279 15.454c-.741.176-.366 1.3.372 1.125zM751.451 552.08a30.615 30.615 0 0 1-13.671-17.632c-.215-.732-1.34-.36-1.125.371a31.844 31.844 0 0 0 14.263 18.319c.657.39 1.187-.67.533-1.058zM744.872 487.434a8.991 8.991 0 0 1-8.52-.433c-.653-.398-1.181.663-.534 1.058a10.075 10.075 0 0 0 9.425.5.612.612 0 0 0 .377-.748.595.595 0 0 0-.748-.377z" fill="#fff"/><path d="M653.152 514.676c.4.26.8.52 1.2.79a118.405 118.405 0 0 1 15.14 11.82c.37.33.74.67 1.1 1.01a124.827 124.827 0 0 1 27.11 37.11 121.222 121.222 0 0 1 6.64 17.18c2.45 8.13 4.46 17.14 9.31 23.79a20.796 20.796 0 0 0 1.62 2h43.83c.1-.05.2-.09.3-.14l1.75.08c-.07-.31-.15-.63-.22-.94-.04-.18-.09-.36-.13-.54-.03-.12-.06-.24-.08-.35-.01-.04-.02-.08-.03-.11-.02-.11-.05-.21-.07-.31q-.66-2.685-1.36-5.37c0-.01 0-.01-.01-.02-3.59-13.63-8.35-27.08-15-39.38-.2-.37-.4-.75-.62-1.12a115.674 115.674 0 0 0-10.39-15.76 102.26 102.26 0 0 0-6.81-7.79 85.037 85.037 0 0 0-21.28-15.94c-15.72-8.3-33.92-11.48-50.72-6.41-.43.13-.85.26-1.28.4z" fill="#f0f0f0"/><path d="M653.25 515.232a105.87 105.87 0 0 1 56.888 31.729 45.592 45.592 0 0 1 8.18 11.71 26.149 26.149 0 0 1 2.11 13.599c-.401 4.336-1.314 8.725-.655 13.084a16.01 16.01 0 0 0 7.245 10.907c4.676 3.125 10.197 4.385 15.638 5.428 6.042 1.159 12.335 2.267 17.378 6.04.61.458 1.284-.517.674-.973-8.772-6.566-20.528-5.188-30.125-9.823-4.479-2.163-8.332-5.688-9.441-10.7-.97-4.381-.033-8.908.411-13.295a27.902 27.902 0 0 0-1.567-13.374 42.148 42.148 0 0 0-7.7-11.982 102.712 102.712 0 0 0-24.782-20.406 107.747 107.747 0 0 0-34.163-13.125c-.746-.148-.832 1.034-.09 1.181z" fill="#fff"/><path d="M705.566 541.427a15.884 15.884 0 0 0-.364-20.564c-.505-.57-1.416.188-.91.76a14.708 14.708 0 0 1 .3 19.13c-.486.587.491 1.258.974.674zM720.921 570.098a30.615 30.615 0 0 1-21.531-5.847c-.613-.455-1.287.52-.675.974a31.844 31.844 0 0 0 22.418 6.039c.759-.085.543-1.25-.212-1.166zM676.746 522.443a8.991 8.991 0 0 1-7.063 4.785c-.76.074-.544 1.24.211 1.166a10.075 10.075 0 0 0 7.826-5.276.612.612 0 0 0-.15-.824.595.595 0 0 0-.824.15z" fill="#fff"/><path d="M438.704 32.601a11.554 11.554 0 0 0 3.482 17.371L435.43 90.47l19.501-8.654 3.426-37.131A11.616 11.616 0 0 0 438.704 32.6zM614.147 592.883l-15.946-.001-7.586-61.506 23.535.001-.003 61.506z" fill="#9e616a"/><path d="m618.214 608.34-51.417-.002v-.65a20.014 20.014 0 0 1 20.013-20.012h31.405z" fill="#2f2e41"/><path fill="#9e616a" d="m507.147 592.883-15.946-.001-7.586-61.506 23.535.001-.003 61.506z"/><path d="m511.214 608.34-51.417-.002v-.65a20.014 20.014 0 0 1 20.013-20.012h31.405zM500.5 305.876l-5.96 7.84s-.54 3.66-9.58 33.485L480 571.376h30l40.1-179.366 41.618 182.964 26.006 1.535-1.223-207.96s3.285-42.782-8.358-50.728S500.5 305.876 500.5 305.876z" fill="#2f2e41"/><circle cx="540.732" cy="86.013" r="31.48" fill="#9e616a"/><path d="m572.402 90.941-.52-1.04c-.804-1.607-7.46-14.974-8.296-18.411l-8.377.985-21.816.004 3.031-4.547-8.014 1.045a18.393 18.393 0 0 0-8.167 3.078 12.513 12.513 0 0 0-3.704 3.82c-2.863 4.902-7.236 12.92-7.28 13.001l-.419.767-3.634-6.114c-.048-.237-4.552-23.73 10.522-31.698.778-1.58 7.403-14 23.06-13.162a9.927 9.927 0 0 1 6.75-3.355c3.576-.187 7.288 1.692 11.015 5.606 4.952 5.2 11.734 12.32 15.835 20.226l1.132 1.614a12.723 12.723 0 0 1 2.264 7.9 26.372 26.372 0 0 1-.899 13.452z" fill="#2f2e41"/><path d="m564.718 123.417 17.42 9.628 34.217 9.58-10.213 89.546L608 320.376s-57.92 39.678-113.46-6.66V202.69l3.285-60.065s13.29-3.776 19.983 2.737l12.692-16.487z" fill="#e4e4e4"/><path fill="#e4e4e4" d="m505.5 150.876-7.675-8.25-42.294-4.791 3.969-64.959-23.059-16.45-16.941 91.45 78.258 54.815 7.742-51.815z"/><path d="M591.233 349.524a11.554 11.554 0 0 1 11.22-13.71l13.022-38.939 13.167 16.789-14.384 34.402a11.616 11.616 0 0 1-23.025 1.458z" fill="#9e616a"/><path d="m603.5 152.876 12.855-10.25s13.145 7.25 17.145 20.25 11 87 11 87l-19 95-21.248-14.736 10.248-75.264-18-55z" fill="#e4e4e4"/><path fill="#e6e6e6" d="M118.143 0h324.202v78.782H118.143z"/><path d="M126.65 70.275h307.189V8.507h-307.19z" fill="#fff"/><circle cx="185.159" cy="39.391" r="23.532" fill="#ffe1e6"/><path fill="#ffe1e6" d="M241.432 30.183h157.429v5.116H241.432zM241.432 43.484h157.429V48.6H241.432z"/><path data-name="Rectangle 1" d="m0 119.742 274.314 20.009v72.024L0 206.68z" fill="#e6e6e6"/><path data-name="Path 1" d="m8.641 197.506 259.684 6.351v-56.732L8.641 129.709z" fill="#fff"/><path data-name="Ellipse 1" d="M65.637 141.311a20.649 20.649 0 0 1 8.555 2.477 23.816 23.816 0 0 1 6.916 5.704 26.934 26.934 0 0 1 4.627 8.072 28.228 28.228 0 0 1 1.69 9.644 26.934 26.934 0 0 1-1.69 9.49 23.921 23.921 0 0 1-4.627 7.653 20.886 20.886 0 0 1-6.916 5.07 19.407 19.407 0 0 1-8.555 1.694 20.486 20.486 0 0 1-8.652-2.223 23.603 23.603 0 0 1-7.138-5.612 26.824 26.824 0 0 1-4.85-8.192 28.217 28.217 0 0 1-1.785-9.9 26.893 26.893 0 0 1 1.785-9.742 23.776 23.776 0 0 1 4.85-7.745 20.74 20.74 0 0 1 7.139-4.957 19.396 19.396 0 0 1 8.65-1.433z" fill="#e6e6e6"/><path data-name="Rectangle 2" d="m116.728 159.132 126.388 6.587v4.787l-126.388-6.14z" fill="#e6e6e6"/><path data-name="Rectangle 3" d="m116.728 172.74 126.388 5.425v4.787l-126.388-4.98z" fill="#e6e6e6"/><path data-name="Rectangle 4" d="m0 266.055 274.314-5.093v72.024L0 352.995z" fill="#e6e6e6"/><path data-name="Path 2" d="m8.641 343.027 259.684-17.417v-56.726L8.641 275.236z" fill="#fff"/><path data-name="Ellipse 2" d="M43.23 306.4a28.18 28.18 0 0 1 2.185-9.82 26.498 26.498 0 0 1 5.167-7.94 23.201 23.201 0 0 1 7.34-5.247 20.243 20.243 0 0 1 8.712-1.78 19.443 19.443 0 0 1 8.458 2.13 21.183 21.183 0 0 1 6.69 5.422 24.32 24.32 0 0 1 4.308 7.89 27.21 27.21 0 0 1 1.31 9.582 28.197 28.197 0 0 1-2.069 9.568 26.626 26.626 0 0 1-4.94 7.852 23.417 23.417 0 0 1-7.127 5.36 20.389 20.389 0 0 1-8.635 2.042 19.415 19.415 0 0 1-8.574-1.881 21.027 21.027 0 0 1-6.916-5.33 24.184 24.184 0 0 1-4.523-8.004 27.176 27.176 0 0 1-1.385-9.844z" fill="#e6e6e6"/><path data-name="Rectangle 5" d="m116.728 294.765 126.388-4.98v4.787l-126.388 5.425z" fill="#e6e6e6"/><path data-name="Rectangle 6" d="m116.728 308.37 126.388-6.14v4.788l-126.388 6.586z" fill="#e6e6e6"/><path d="M788.382 609.376h-381a1 1 0 0 1 0-2h381a1 1 0 0 1 0 2z" fill="#cacaca"/></svg>