<svg version="1.0" xmlns="http://www.w3.org/2000/svg" width="1637.333" height="1706.667" viewBox="0 0 1228 1280"><path d="M615 213.6c0 124.2-.4 214.4-.9 214.9-.5.6-3.2 8.6-6 18-9.9 32.7-11.9 39-12.4 37.5-.3-.8-12-91.7-26.2-202C542.3 70.4 534.1 6.6 534 6.4c-.1-.3-26.5 4-37.5 6.1-19.4 3.8-39.5 8.8-39.5 9.7 0 .5 4.2 17.2 9.4 37.1 5.2 19.9 14 53.7 19.6 75.2 5.6 21.4 14.3 55.2 19.5 75 5.1 19.8 13.5 52 18.5 71.5 5.1 19.5 12.5 48.1 16.5 63.5 4 15.4 9.1 35 11.3 43.5 2.3 8.5 10.6 40.8 18.7 71.8l14.6 56.3-2.9 5.6c-2 4.1-3.8 6.1-5.9 7l-3.1 1.2-10.5-26.2c-5.8-14.4-24.3-60.2-41-101.7-16.8-41.5-44.5-110.4-61.7-153-17.2-42.6-42-104.3-55.2-137-13.2-32.7-24.4-60.5-24.9-61.7-.8-2.2-.9-2.2-11.1 2.3-16.1 7.1-55.9 27.5-60.6 30.9-.1.1 2.4 4.9 5.6 10.6 26.4 46.7 247.3 442.1 247 442.2-.1.1-3 2.1-6.4 4.4l-6 4.1-153.9-206.3-153.9-206.4-5.9 4.7c-11.7 9.2-29.4 24.9-41.4 36.7l-12.3 12 178.5 184C457.6 470.7 537.9 553.7 537.9 554c0 .3-2.2 2.9-4.8 5.9l-4.9 5.4-22.8-18c-12.6-9.9-102.8-81.1-200.4-158.2-97.6-77-177.8-140.1-178.2-140.1-1.8 0-29 40-39.3 57.8-4 7-4.5 8.6-3.4 9.6.8.7 98.6 59.2 217.4 129.9C420.3 517 518.3 575.5 519.2 576.2c1.5 1.2 1.4 1.8-1.5 7.4l-3.2 6.1-79.5-33.9c-43.7-18.6-89.4-38.1-101.5-43.2-12.1-5.2-57.1-24.3-100-42.6s-88.3-37.6-101-43c-12.6-5.4-35.1-14.9-50-21.3-14.8-6.3-28.7-12.2-30.7-13l-3.7-1.6-4.9 12.7c-7.1 18.2-21.6 63-20.7 64 .1.1 5.8 1.7 12.6 3.6 13.6 3.8 88.6 24.5 117.9 32.6 10.2 2.8 37.9 10.5 61.5 17 23.7 6.5 51.3 14.2 61.5 17 10.2 2.8 31.3 8.7 47 13 15.7 4.3 36.8 10.2 47 13 10.2 2.8 45.5 12.6 78.5 21.7 33 9 60.3 16.8 60.7 17.2.7.6-1.5 13.8-2.4 14.6-.3.3-17-1.9-169.8-22.5-37.1-5-94-12.6-126.5-17-32.4-4.4-89.4-12-126.5-17-37.1-5.1-70-9.4-73.1-9.7l-5.6-.5-.7 7.3C1.9 586.9 1 597.7.4 613.7L-.3 632H506v3.4c0 1.8.3 5.3.6 7.8l.6 4.4-13.3 1.8c-7.4 1-35.9 4.9-63.4 8.6-85.7 11.8-164 22.5-247.5 34-44.3 6.1-101.7 14-127.6 17.5C29.5 713.1 8 716 7.6 716c-.9 0-.3 4.7 3.5 28.5 2.3 14.1 9.6 50 10.4 51.2.1.3 25.1-6.6 105-28.7 7.7-2.1 33.6-9.2 57.5-15.9 23.9-6.6 51.8-14.3 62-17.1 10.2-2.8 37.9-10.5 61.5-17 23.7-6.5 51.1-14.1 61-16.9 104.2-28.8 137.9-38.1 139.8-38.4 1.2-.3 5.8 13.6 4.9 14.4-.4.3-105 45.3-232.6 100-127.5 54.7-232 99.9-232.3 100.5-.6 1.7 10.9 27.9 22.5 51.2 7.9 15.9 10.9 21.1 12 20.7.8-.3 99.3-58.8 218.8-130C421.2 747.3 519.4 689 520 689c.5 0 1 .4 1 .9s1.8 3.6 4 6.9c2.2 3.3 4 6.2 4 6.5 0 .3-24.9 20.3-55.2 44.5-30.4 24.1-96 76.2-145.8 115.7-49.8 39.5-115.1 91.4-145.2 115.3l-54.7 43.4 5.7 7.2c14.6 18.3 27.5 33.1 45.6 52.4 1 1 38.1-36.8 180.1-183.3C457.8 797 538.7 714.3 539.1 714.7c.5.5.6 6.1.2 12.5l-.6 11.6-22.8 30.8-22.9 30.9-8.7 3.8c-9.6 4.1-24.9 9.5-35.8 12.6-8.9 2.6-13.3 6.2-17.7 14.8-4.6 8.8-7.2 18.4-9.7 35.8-1.1 7.7-2.7 19.2-3.6 25.5l-1.7 11.5-86.4 116.5c-47.5 64.1-86.4 116.7-86.4 117 .1.6 21.1 16.1 27.7 20.4l4.2 2.8-9.3 9.1c-11.3 11.2-11.1 10.7-16.2 38.7-1.9 10.3-1.4 24.7 1 30.5 2.1 4.9 6 9.1 10.7 11.5 5.2 2.7 64.1 10.9 117.4 16.4 73.6 7.6 135 11.2 210 12.2 121.9 1.7 235.9-7 347.5-26.4l15.5-2.7 3.5-7 3.5-7v-16c0-12.5-.4-17.5-1.9-23-5.3-19.9-18.1-32.3-42.6-41.5l-8.5-3.2-14.6-26.1c-8-14.4-32-57.3-53.3-95.3l-38.7-69.2-.9-9.3c-.6-5.2-2.1-20.9-3.5-34.9s-3.2-31.1-4-37.9c-.8-6.9-1.3-12.6-1.2-12.7.1-.2 45.2 60 100.1 133.7 55 73.6 100.3 133.9 100.7 133.9 2.2 0 34.8-29.1 50.1-44.6l8.6-8.9-178.4-184C772.3 796.3 692 713.3 692.1 713c0-.3 2.2-2.9 4.9-5.9 3.7-4 5.3-5.1 6.2-4.4 55.4 44.3 397.7 313.6 398.7 313.7 2.4.2 39.1-56.2 42.6-65.4.4-1.1-53.2-33.5-217.4-131.4l-218-129.8 3.6-7.2c1.9-3.9 3.6-7.2 3.8-7.4.1-.1 23.5 9.7 52.1 21.9C849 731.4 973 784.2 998.5 795c42.7 18.2 131.8 56.2 156.5 66.7 13.5 5.8 25.5 10.7 26.6 11 1.9.4 2.6-.8 6.7-11.9 7.7-21 20.6-63.3 19.5-64.3-.2-.2-22.6-6.5-49.8-14-27.2-7.5-57.6-15.9-67.5-18.6-9.9-2.8-37.3-10.4-61-16.9-23.6-6.5-51.3-14.2-61.5-17-10.2-2.8-31.3-8.7-47-13-15.7-4.3-36.8-10.2-47-13-10.2-2.8-38.1-10.5-62-17.1-100.6-27.8-91.6-25.2-91.2-27 .2-.8.8-4.1 1.3-7.4.6-3.3 1.1-6 1.2-6.1.1-.1 29.5 3.8 65.2 8.6 76.7 10.4 172.4 23.2 249 33.5 30.3 4.1 83.6 11.3 118.6 16 35 4.7 64.5 8.5 65.6 8.5 1.8 0 2.1-1.1 3.2-12.8 1.7-17.9 3-42.6 3.1-56.5V632H724.3l-.7-3.1c-.3-1.7-.6-5.1-.6-7.4v-4.2l18.8-2.6c17-2.4 52.3-7.2 179.7-24.7 23.7-3.2 69.6-9.5 102-14 139.7-19.2 160.1-22 179.5-24.6 11.3-1.5 20.7-2.9 20.8-3 1.5-1-13.7-76.5-15.8-78.7-.4-.5-11.4 2.1-24.4 5.7-41.2 11.5-69.2 19.2-99.1 27.5-15.9 4.4-37.3 10.3-47.5 13.1-10.2 2.8-37.8 10.5-61.5 17-23.6 6.5-51.3 14.2-61.5 17-10.2 2.8-31.3 8.7-47 13-15.7 4.3-36.6 10.1-46.5 12.9-41.3 11.4-99.1 27.3-99.8 27.4-1 .3-5.7-13.6-4.9-14.4.4-.4 19.2-8.5 41.7-18.2 152.4-65.2 422.1-181 422.7-181.5.9-.9-6.5-18-17.2-39.7-11.6-23.5-16.9-32.8-18.3-32.2-.7.2-98.7 58.6-218 129.6C807.5 517.9 709.6 576 709.1 576c-.8 0-7.5-9.9-7-10.4.2-.2 16.8-13.3 36.9-29.3 20.1-15.9 64.9-51.4 99.5-78.9 166.5-132.2 230.4-182.9 245.8-195.1l16.8-13.4-6.3-8.2c-18.5-24.4-44-53.3-46-52.1-.5.3-80.6 82.8-178 183.3C773.4 472.3 693.4 554.5 693 554.5c-.4 0-3.1-2.2-5.9-4.8l-5.2-4.9 6.4-8.6c3.5-4.8 72.4-97.7 153-206.5C922 220.9 987.8 131.5 987.5 131c-1.2-2-31.5-24.1-45.5-33.2-19.4-12.7-18.6-12.3-20.3-9.6-.8 1.3-57.6 102.6-126.2 225.3-68.6 122.6-124.8 223.1-124.9 223.2-.3.4-13.6-6.8-13.6-7.3 0-.2 42.8-107.4 95.1-238.1 52.4-130.8 95.4-238.7 95.6-239.9.4-1.8-.8-2.6-8.4-5.7-21.2-8.8-63.8-23.6-64.8-22.5-.2.2-2.9 10.2-6 22.3-9.2 35.4-19.4 74.6-33 127-7 26.9-16.3 62.5-20.5 79-4.3 16.5-12.8 49.1-18.9 72.5-25.2 97.2-33.3 128.3-42.2 162.4l-9.3 35.9-1.7-4.1c-1-2.3-3.4-11.5-5.3-20.4l-3.4-16.3 5.3-42.5c7-55.2 18.7-148.1 27.6-218 3.8-30.5 9-71.3 11.4-90.5 2.4-19.3 7-55 10-79.3 3.1-24.4 5.4-44.7 5.1-45-1.4-1.4-38.8-4.9-61.3-5.8L615-.3v213.9zm95 546.9c15.4 20.6 28 37.6 28 37.8 0 .1-7.1-1.4-15.7-3.5-8.7-2.1-16.7-4-17.8-4.3-1.4-.3-5.7-7.1-14.1-22.2l-12.1-21.8.8-9c.4-5 .8-10.2.8-11.8.1-1.5.6-2.7 1.1-2.7.6 0 13.6 16.9 29 37.5zm-142.5-18.6 1.8 7.9-4.4 11-4.4 11.1-13.4 5c-7.4 2.8-13.6 5-13.7 4.8-.2-.1 2.4-5.3 5.8-11.4 5.3-9.5 6.5-11.1 8.6-11.1 3.5 0 4.8-2.2 6.3-10.5.7-4.1 2.5-9.5 4.2-12.4 2.8-5.1 2.9-5.2 5.1-3.8 1.7 1.1 2.7 3.5 4.1 9.4zm93.5 4.7c1.1 3.6 2 7.1 2 7.8 0 .6 1 2.7 2.2 4.6 2.3 3.6 9.8 21.3 9.3 21.8-.7.7-8.2-3.1-10.7-5.5-3.6-3.5-6.9-11.5-7.5-18.4-.6-6.6.4-16.9 1.7-16.9.5 0 1.8 3 3 6.6zM496 932.1c0 1.2-8.9 23.5-8.9 22.4-.1-.9 2.7-13.2 5.1-23 .9-3.7 1.1-3.8 2.4-2 .8 1 1.4 2.2 1.4 2.6zm20.1 89.7c-.7 3.7-3.2 15.9-5.7 27.2-6.6 30-8 34.1-9.8 29.4-.3-.9 3.1-16 7.6-33.5 8-30.6 10.3-37.4 7.9-23.1zm-112.3 15.9c1.1 2.9 3.3 6.9 4.9 9 5.1 6.7 6.2 9 11.2 23.7 2.7 8 6.3 17.1 7.9 20.1l3 5.6-3.7 9.2c-3.3 8.1-4.1 9.2-6.7 9.9-10.8 2.5-17.6 4.6-30.8 9.4-8.3 3-20.3 6.8-26.6 8.5-6.3 1.7-16.3 5-22.2 7.4-5.9 2.4-10.8 4.2-10.8 4 0-.3 68.5-122.8 69.9-125 .3-.6.9 2.1 1.2 6 .4 3.8 1.6 9.3 2.7 12.2zm400.2 63.4c6.1 15 11 27.7 11 28.1 0 1.5-10-4.2-14.2-8-5-4.5-10-14.6-12.3-24.7-1.5-6.9-1.5-7.9 0-13 2.2-7.7 3.5-10.9 4.1-10.3.2.3 5.4 12.8 11.4 27.9z" fill="#DDB4BA"/></svg>